# xmcd CD database file
#
# Track frame offsets:
#	150
#	13939
#	28657
#	43856
#	62052
#	81543
#	96954
#	110775
#	129022
#	143828
#	168747
#
# Disc length: 2494 seconds
#
# Revision: 0
# Processed by: cddbd v1.5.2PL0 Copyright (c) Steve Scherf et al.
# Submitted via: CDex 1.70beta2
#
DISCID=9d09bc0b
DTITLE=Ntjam Rosie - At The Back Of Beyond
DYEAR=2013
DGENRE=Jazz
TTITLE0=Let Go
TTITLE1=Thinkin' About You
TTITLE2=Je Me Confie
TTITLE3=Love Is Calling
TTITLE4=Secret Waters
TTITLE5=In The Middle
TTITLE6=Made feat. Reinier Baas 
TTITLE7=Keep The Faith
TTITLE8=Nsissim Zambe
TTITLE9=Live and Learn
TTITLE10=At The Back Of Beyond
EXTD=YEAR: 2013
EXTT0=
EXTT1=
EXTT2=
EXTT3=
EXTT4=
EXTT5=
EXTT6=
EXTT7=
EXTT8=
EXTT9=
EXTT10=
PLAYORDER=
